<svg id="Layer_1" data-name="Layer 1" xmlns="http://www.w3.org/2000/svg" viewBox="0 0 726.89 404.1"><defs><style>.cls-1{fill:#231f20;}.cls-2{fill:#2c2b7d;}.cls-3{fill:#d04a9b;}.cls-4{fill:#2bb34b;}</style></defs><path class="cls-1" d="M-339,200.79c3.22,0,3.23-5,0-5s-3.22,5,0,5Z" transform="translate(341.4 -193.61)"/><path class="cls-2" d="M95.34,425.68q0-91.8,4.26-183.55a286.65,286.65,0,0,0,66.65,113.3C191,303.6,226.94,258.11,262.6,213.12c-6,89.85,13.59,179.22,33.1,267.13a250.13,250.13,0,0,0-8.22-73.18A41.08,41.08,0,0,0,297,442.84c1.64,1.81,3.57,3.54,6,4.08,6.1,1.37,10.93-5.65,11.53-11.88s-.94-12.78,1.39-18.59c-.65,16.49,1.54,33,.86,49.48S312,499.57,301,511.8s-30.65,17.75-44.69,9.08c-13.32-8.23-17.54-25.47-19.21-41-6.39-59.4,7.06-119.63.32-179a138.57,138.57,0,0,0-43,104.87c.27,7,.66,15.11-4.58,19.78-5.67,5.05-15.11,2.76-20.49-2.61s-7.87-12.86-10.84-19.85A126.73,126.73,0,0,0,123,355.45a99.39,99.39,0,0,0-7,50c.64,5.27,1.69,10.61.8,15.85s-4.31,10.48-9.49,11.62-11.25-3.89-9.69-9" transform="translate(341.4 -193.61)"/><path class="cls-3" d="M148.65,212l.11,72.14c3.43-3.66,10.87-1.06,13.63-5.25a8.71,8.71,0,0,0,1.07-3.93,133.7,133.7,0,0,0-2.69-43.69c8.12,13.32,16.39,27,19.46,42.3a10.53,10.53,0,0,0,1.55,4.42c2.46,3.23,8,1.94,10.34-1.38s2.33-7.69,2.25-11.74c-.39-20-.79-40-3.57-59.8-.47-3.37-1.12-7-3.48-9.41s-7-2.94-8.89-.09a8.63,8.63,0,0,0-.94,4.76l-.15,27.6c-5.34-2.32-8-8.27-9.67-13.85s-2.93-11.63-7-15.78-12.19-4.91-15.06.16c-1.18,2.09-1.19,4.63-1.17,7l.16,18.84" transform="translate(341.4 -193.61)"/><path class="cls-4" d="M363.43,268.21c.05-5.06-5.73-7.9-10.63-9.19-13.84-3.63-29.94-4.36-41.08,4.62-9.64,7.77-13.12,20.84-14.55,33.13-2,17.47-.94,35.79,6.76,51.6s22.85,28.67,40.35,30.28c8.24.76,18.44-2.69,19.66-10.87.32-2.17.19-4.87,2.1-6,1.31-.74,3-.26,4.46-.49,4.38-.66,5.48-6.39,5.52-10.82l.2-20.42c0-1.2-.09-2.62-1.11-3.26-1.2-.75-2.74.13-3.83,1.05-5.69,4.82-9.7,11.32-15,16.52s-13,9.21-20.11,7.09c-8.77-2.6-12.56-12.68-15.11-21.47-2.22-7.62-4.46-15.4-4.26-23.33.38-14.93,11.62-29.94,26.51-31.14,6-.48,12.62,1.66,15.47,6.92,1.31,2.41,1.69,5.21,2.83,7.7s3.52,4.8,6.24,4.46l.08-26.48" transform="translate(341.4 -193.61)"/><path class="cls-1" d="M85.49,420.94s268.5,307.59,300,0C385.49,420.94,303.3,747.71,85.49,420.94Z" transform="translate(341.4 -193.61)"/><path class="cls-1" d="M62.06,433.64s268.49,307.59,300,0C367.17,413.3,293.42,780.74,62.06,433.64Z" transform="translate(341.4 -193.61)"/><path class="cls-1" d="M29.4,452.48s268.49,307.59,300,0C329.4,452.48,247.21,779.25,29.4,452.48Z" transform="translate(341.4 -193.61)"/></svg>